<svg width="41" height="40" viewBox="0 0 41 40" fill="none" xmlns="http://www.w3.org/2000/svg">
<path d="M35.4196 0H6.20014C3.22334 0 0.810059 2.41318 0.810059 5.39008V34.6097C0.810059 37.5866 3.22324 39.9998 6.20014 39.9998H20.611L20.6356 25.706H16.9221C16.4395 25.706 16.0478 25.3158 16.0459 24.8332L16.0281 20.2257C16.0263 19.7405 16.4191 19.3462 16.9044 19.3462H20.6111V14.8942C20.6111 9.72768 23.7665 6.91449 28.3753 6.91449H32.1573C32.6411 6.91449 33.0335 7.30677 33.0335 7.79074V11.6758C33.0335 12.1596 32.6414 12.5517 32.1577 12.552L29.8368 12.5531C27.3304 12.5531 26.8451 13.7441 26.8451 15.492V19.3463H32.3526C32.8773 19.3463 33.2845 19.8045 33.2227 20.3256L32.6766 24.9331C32.6243 25.374 32.2504 25.7062 31.8065 25.7062H26.8696L26.8451 40H35.4198C38.3966 40 40.8098 37.5868 40.8098 34.61V5.39008C40.8097 2.41318 38.3965 0 35.4196 0Z" fill="white"/>
</svg>
