<svg width="16" height="17" viewBox="0 0 16 17" fill="none" xmlns="http://www.w3.org/2000/svg">
<g clip-path="url(#clip0)">
<path d="M14.5959 7.1419L8.35569 1.10906C7.98765 0.754188 7.39231 0.758386 7.02909 1.10861C6.66381 1.4626 6.66381 2.03738 7.02909 2.39092L13.2703 8.42334C13.6359 8.77676 14.2303 8.77676 14.5959 8.42334C14.9626 8.06895 14.9626 7.49623 14.5959 7.1419Z" fill="#767676"/>
<path d="M6.56604 3.22488L6.51907 3.45246C6.18823 5.05216 5.38416 6.57191 4.29663 7.80366L7.69186 11.0856C8.96598 10.0345 10.5165 9.23643 12.1716 8.91624L12.4074 8.87084L6.56604 3.22488Z" fill="#767676"/>
<path d="M3.67413 8.48343L1.35372 10.7259C0.805436 11.2559 0.803154 12.1163 1.35372 12.6485L2.67941 13.93C3.22769 14.4599 4.11782 14.4621 4.66838 13.93L6.98857 11.6872L3.67413 8.48343ZM4.00557 12.0078C3.82247 12.1848 3.52582 12.1848 3.34272 12.0078C3.15963 11.8308 3.15963 11.5441 3.34272 11.3671L4.00557 10.7264C4.18866 10.5494 4.48532 10.5494 4.66841 10.7264C4.85151 10.9034 4.85151 11.1901 4.66841 11.3671L4.00557 12.0078Z" fill="#767676"/>
<path d="M8.9458 14.1711L9.58346 13.5547C10.1341 13.0226 10.1322 12.1621 9.58349 11.6326L9.10987 11.1744C8.84808 11.3444 8.59808 11.5291 8.35502 11.7262L8.92065 12.2737C9.1033 12.4494 9.10458 12.7353 8.92065 12.914L8.27246 13.5406L7.31989 12.6485L5.99414 13.93L8.12093 15.922C8.48386 16.2738 9.07977 16.2757 9.44615 15.9216C9.8119 15.568 9.8119 14.9932 9.44615 14.6397L8.9458 14.1711Z" fill="#767676"/>
<path d="M10.8396 0.720581C10.5805 0.720581 10.3708 0.92324 10.3708 1.17369V2.07989C10.3708 2.33034 10.5805 2.533 10.8396 2.533C11.0987 2.533 11.3084 2.33034 11.3084 2.07989V1.17369C11.3084 0.92324 11.0987 0.720581 10.8396 0.720581Z" fill="#767676"/>
<path d="M14.5896 4.34543H13.6521C13.393 4.34543 13.1833 4.5483 13.1833 4.79902C13.1833 5.04973 13.393 5.2526 13.6521 5.2526H14.5896C14.8487 5.2526 15.0584 5.04973 15.0584 4.79902C15.0584 4.5483 14.8487 4.34543 14.5896 4.34543Z" fill="#767676"/>
<path d="M13.9835 1.76048C13.8004 1.5835 13.5038 1.5835 13.3207 1.76048L12.3832 2.66669C12.2001 2.84367 12.2001 3.13043 12.3832 3.30741C12.5663 3.48439 12.8629 3.48442 13.046 3.30741L13.9835 2.4012C14.1666 2.22422 14.1666 1.93747 13.9835 1.76048Z" fill="#767676"/>
</g>
<defs>
<clipPath id="clip0">
<rect width="16" height="15.4659" fill="white" transform="translate(0 0.720581)"/>
</clipPath>
</defs>
</svg>
