<svg width="41" height="40" viewBox="0 0 41 40" fill="none" xmlns="http://www.w3.org/2000/svg">
<path fill-rule="evenodd" clip-rule="evenodd" d="M12.0389 0H28.1782C34.7373 0 40.0735 5.33623 40.0736 11.8954V28.0346C40.0736 34.5938 34.7373 39.93 28.1782 39.93H12.0389C5.47979 39.93 0.143555 34.5938 0.143555 28.0346V11.8954C0.143555 5.33623 5.47979 0 12.0389 0ZM28.1778 35.9132C32.5289 35.9132 36.0562 32.3859 36.0562 28.0348V11.8955C36.0562 7.54434 32.5289 4.01709 28.1778 4.01709H12.0386C7.68747 4.01709 4.16016 7.54434 4.16016 11.8955V28.0348C4.16016 32.3859 7.68747 35.9132 12.0386 35.9132H28.1778Z" fill="white"/>
<path fill-rule="evenodd" clip-rule="evenodd" d="M9.78125 19.9649C9.78125 14.2705 14.4141 9.6377 20.1086 9.6377C25.8031 9.6377 30.4359 14.2704 30.4359 19.9649C30.4359 25.6594 25.8031 30.2923 20.1086 30.2923C14.4141 30.2923 9.78125 25.6594 9.78125 19.9649ZM13.7981 19.9651C13.7981 23.4503 16.6233 26.2755 20.1085 26.2755C23.5935 26.2755 26.4188 23.4502 26.4188 19.9651C26.4188 16.48 23.5936 13.6548 20.1085 13.6548C16.6234 13.6548 13.7981 16.48 13.7981 19.9651Z" fill="white"/>
<path d="M30.4556 12.19C31.8223 12.19 32.9302 11.0821 32.9302 9.71536C32.9302 8.34866 31.8223 7.24072 30.4556 7.24072C29.0889 7.24072 27.981 8.34866 27.981 9.71536C27.981 11.0821 29.0889 12.19 30.4556 12.19Z" fill="white"/>
</svg>
