<svg width="124" height="60" viewBox="0 0 124 60" fill="none" xmlns="http://www.w3.org/2000/svg">
<path fill-rule="evenodd" clip-rule="evenodd" d="M64.1861 21.0253L61.7399 22.4368L59.2896 21.0253V18.198L61.7399 16.7851L64.1861 18.198V21.0253ZM58.1759 17.5558V21.6661L61.7399 23.7241L65.2998 21.6661V17.5558L61.7399 15.4978L58.1759 17.5558Z" fill="#212121"/>
<path fill-rule="evenodd" clip-rule="evenodd" d="M67.1903 22.7593L61.7391 25.9083L56.2836 22.7593V16.4611L61.7391 13.3135L67.1903 16.4611V22.7593ZM68.3026 15.8175L61.7391 12.029L55.1714 15.8175V23.4029L61.7391 27.1956L68.3026 23.4029V15.8175Z" fill="#212121"/>
<path fill-rule="evenodd" clip-rule="evenodd" d="M71.2518 14.1174L61.7398 8.62103L60.6289 9.26185L64.6926 11.6134L70.141 14.7582V24.4581L63.5055 28.2423L64.6164 28.8902L71.2518 25.1059V14.1174Z" fill="#212121"/>
<path fill-rule="evenodd" clip-rule="evenodd" d="M53.3379 14.7583L59.9141 10.9614L58.8019 10.3177L52.2214 14.1175V25.1046L60.5916 29.9263V33.1741L61.7025 33.8898V29.3024L53.3379 24.4624V14.7583Z" fill="#212121"/>
<path fill-rule="evenodd" clip-rule="evenodd" d="M73.1362 26.195L66.6038 30.0442L67.7047 30.6864L74.2499 26.833V20.5363H73.1362V26.195Z" fill="#212121"/>
<path fill-rule="evenodd" clip-rule="evenodd" d="M51.0483 27.8856L56.1495 30.8328L57.273 30.1948L52.1648 27.2476L51.0483 27.8856Z" fill="#212121"/>
<path fill-rule="evenodd" clip-rule="evenodd" d="M49.2234 12.3846V26.813L50.3385 26.1778V13.0297L61.7391 6.44928L73.1356 13.0297V18.6856H74.2492V12.3846L61.7391 5.16058L49.2234 12.3846Z" fill="#212121"/>
<path fill-rule="evenodd" clip-rule="evenodd" d="M64.7938 3.45875L64.7981 3.46439L62.7091 2.2618L61.7478 1.70425L61.745 1.70708V1.70425L60.7259 2.29144L58.6919 3.46439L58.6976 3.45875L46.2284 10.6574V20.1398L47.3421 19.5089V11.2982L56.3347 6.10954L56.3418 6.11378L61.745 2.99013L67.1496 6.11378L67.1567 6.10954L68.9987 7.17381L68.9902 7.17805L74.121 10.1436L74.1337 10.138L76.1479 11.2982V19.5089H76.1508L77.2602 20.1398V10.6574L64.7938 3.45875Z" fill="#212121"/>
<path fill-rule="evenodd" clip-rule="evenodd" d="M58.6425 0.000152588L47.9307 6.18534L49.0415 6.82899L59.7506 0.642385L58.6425 0.000152588Z" fill="#212121"/>
<path fill-rule="evenodd" clip-rule="evenodd" d="M64.8317 0.000152588L63.7223 0.642385L74.4328 6.82899L75.5464 6.18534L64.8317 0.000152588Z" fill="#212121"/>
<path fill-rule="evenodd" clip-rule="evenodd" d="M14.8193 35.9142L9.65606 50.2056L4.49562 35.9142H0L7.17324 54.5304H12.1389L19.3107 35.9142H14.8193Z" fill="#FFCF01"/>
<path fill-rule="evenodd" clip-rule="evenodd" d="M25.01 51.2926V49.6185C24.4228 48.8366 23.3092 48.4202 22.163 48.4202C20.7699 48.4202 19.6209 49.1711 19.6209 50.4556C19.6209 51.7386 20.7699 52.4655 22.163 52.4655C23.3092 52.4655 24.4228 52.0746 25.01 51.2926ZM25.0101 54.5292V53.1092C24.087 54.2257 22.499 54.8665 20.7403 54.8665C18.592 54.8665 16.0781 53.4155 16.0781 50.4019C16.0781 47.2176 18.592 46.0475 20.7403 46.0475C22.5527 46.0475 24.1166 46.6332 25.0101 47.6933V45.9896C25.0101 44.6218 23.8357 43.7284 22.053 43.7284C20.6288 43.7284 19.2893 44.2873 18.1742 45.3205L16.7768 42.8363C18.4254 41.3556 20.5441 40.7176 22.6628 40.7176C25.7652 40.7176 28.5812 41.9428 28.5812 45.8216V54.5292H25.0101Z" fill="#FFCF01"/>
<path fill-rule="evenodd" clip-rule="evenodd" d="M38.513 54.5297V46.3811C38.513 44.5123 37.5391 43.8673 36.0302 43.8673C34.6384 43.8673 33.5742 44.6506 32.963 45.4312V54.5297H29.4187V41.0499H32.963V42.7804C33.8268 41.7754 35.5023 40.7168 37.6774 40.7168C40.6655 40.7168 42.0883 42.3908 42.0883 45.0148V54.5297H38.513Z" fill="#FFCF01"/>
<path fill-rule="evenodd" clip-rule="evenodd" d="M44.4899 51.1533V44.148H42.2598V41.0498H44.4899V37.3658H48.0356V41.0498H50.7711V44.148H48.0356V50.2048C48.0356 51.07 48.4817 51.7123 49.2636 51.7123C49.7943 51.7123 50.2954 51.5146 50.4916 51.293L51.244 54.0003C50.7146 54.476 49.7661 54.8655 48.2855 54.8655C45.804 54.8655 44.4899 53.5797 44.4899 51.1533Z" fill="#FFCF01"/>
<path fill-rule="evenodd" clip-rule="evenodd" d="M60.1749 51.2926V49.6185C59.5905 48.8366 58.4712 48.4202 57.3279 48.4202C55.9305 48.4202 54.7886 49.1711 54.7886 50.4556C54.7886 51.7386 55.9305 52.4655 57.3279 52.4655C58.4712 52.4655 59.5905 52.0746 60.1749 51.2926ZM60.1748 54.5292V53.1092C59.2545 54.2257 57.6652 54.8665 55.905 54.8665C53.7567 54.8665 51.2443 53.4155 51.2443 50.4019C51.2443 47.2176 53.7567 46.0475 55.905 46.0475C57.7188 46.0475 59.2785 46.6332 60.1748 47.6933V45.9896C60.1748 44.6218 59.0033 43.7284 57.2163 43.7284C55.7935 43.7284 54.454 44.2873 53.3375 45.3205L51.9415 42.8363C53.5874 41.3556 55.7074 40.7176 57.8303 40.7176C60.9271 40.7176 63.7487 41.9428 63.7487 45.8216V54.5292H60.1748Z" fill="#FFCF01"/>
<path fill-rule="evenodd" clip-rule="evenodd" d="M64.9469 56.6221C65.2546 56.7619 65.7303 56.8466 66.0634 56.8466C66.9837 56.8466 67.5977 56.5939 67.935 55.8712L68.4347 54.6983L62.9666 41.0491H66.7607L70.2795 50.4299L73.8224 41.0491H77.6179L71.2831 56.7351C70.2795 59.2758 68.4926 59.9434 66.1763 59.9999C65.7839 59.9999 64.865 59.9152 64.4472 59.7768L64.9469 56.6221Z" fill="#FFCF01"/>
<path fill-rule="evenodd" clip-rule="evenodd" d="M90.4518 54.5008V42.1474L85.4085 54.5008H84.954L79.8881 42.1474V54.5008H78.7039V40.654H80.4682L85.1826 52.1746L89.8716 40.654H91.6586V54.5008H90.4518Z" fill="#212121"/>
<path fill-rule="evenodd" clip-rule="evenodd" d="M97.3563 45.158C94.9892 45.158 93.8092 47.2329 93.726 48.9761H101.015C100.991 47.2766 99.8688 45.158 97.3563 45.158ZM92.5629 49.4757C92.5629 46.5694 94.5982 44.2221 97.3789 44.2221C100.432 44.2221 102.11 46.6315 102.11 49.5392V49.83H93.7259C93.829 52.0079 95.2842 53.8133 97.6485 53.8133C98.916 53.8133 100.079 53.3362 100.927 52.4229L101.489 53.1287C100.493 54.1661 99.2266 54.7491 97.5652 54.7491C94.6378 54.7491 92.5629 52.5697 92.5629 49.4757Z" fill="#212121"/>
<path fill-rule="evenodd" clip-rule="evenodd" d="M110.888 51.9859V47.0273C110.314 46.0492 109.002 45.1994 107.59 45.1994C105.371 45.1994 104.082 47.0668 104.082 49.4974C104.082 51.9252 105.371 53.7729 107.59 53.7729C109.002 53.7729 110.314 52.9401 110.888 51.9859ZM110.888 54.5012V52.9006C110.187 53.9409 108.901 54.7497 107.407 54.7497C104.745 54.7497 102.942 52.7143 102.942 49.4975C102.942 46.323 104.745 44.2227 107.407 44.2227C108.839 44.2227 110.102 44.9496 110.888 46.0915V40.6544H111.992V54.5012H110.888Z" fill="#212121"/>
<mask id="mask0" mask-type="alpha" maskUnits="userSpaceOnUse" x="0" y="0" width="124" height="60">
<path fill-rule="evenodd" clip-rule="evenodd" d="M0.000732422 60H123.49V0H0.000732422V60Z" fill="white"/>
</mask>
<g mask="url(#mask0)">
<path fill-rule="evenodd" clip-rule="evenodd" d="M113.275 54.5008H114.353V44.4721H113.275V54.5008ZM112.981 42.0626C112.981 41.6039 113.379 41.2538 113.813 41.2538C114.271 41.2538 114.643 41.6039 114.643 42.0626C114.643 42.5214 114.271 42.8954 113.813 42.8954C113.379 42.8954 112.981 42.5214 112.981 42.0626Z" fill="#212121"/>
<path fill-rule="evenodd" clip-rule="evenodd" d="M122.411 52.5263V50.3257C121.707 49.3913 120.584 48.934 119.382 48.934C117.742 48.934 116.641 49.9926 116.641 51.4267C116.641 52.8396 117.742 53.8968 119.382 53.8968C120.584 53.8968 121.707 53.4409 122.411 52.5263ZM122.411 54.501V53.3139C121.52 54.2921 120.398 54.7494 119.008 54.7494C117.284 54.7494 115.5 53.5651 115.5 51.4055C115.5 49.2262 117.263 48.0843 119.008 48.0843C120.398 48.0843 121.541 48.543 122.411 49.5156V47.483C122.411 45.9868 121.207 45.178 119.733 45.178C118.469 45.178 117.492 45.6128 116.58 46.6502L115.977 45.9063C117.018 44.7842 118.179 44.2224 119.838 44.2224C121.873 44.2224 123.489 45.1992 123.489 47.4406V54.501H122.411Z" fill="#212121"/>
</g>
</svg>
