<svg width="16" height="16" viewBox="0 0 16 16" fill="none" xmlns="http://www.w3.org/2000/svg">
<path d="M10.9167 9.77518H10.2583L10.025 9.55769C10.8417 8.6394 11.3333 7.44724 11.3333 6.15035C11.3333 3.25855 8.90833 0.91449 5.91667 0.91449C2.925 0.91449 0.5 3.25855 0.5 6.15035C0.5 9.04216 2.925 11.3862 5.91667 11.3862C7.25833 11.3862 8.49167 10.911 9.44167 10.1216L9.66667 10.3471V10.9835L13.8333 15.003L15.075 13.8028L10.9167 9.77518ZM5.91667 9.77518C3.84167 9.77518 2.16667 8.15609 2.16667 6.15035C2.16667 4.14461 3.84167 2.52552 5.91667 2.52552C7.99167 2.52552 9.66667 4.14461 9.66667 6.15035C9.66667 8.15609 7.99167 9.77518 5.91667 9.77518Z" fill="#767676"/>
</svg>
