<svg width="16" height="15" viewBox="0 0 16 15" fill="none" xmlns="http://www.w3.org/2000/svg">
<path d="M15.6527 6.86698C15.9677 6.57029 16.0788 6.13487 15.943 5.7301C15.8068 5.32534 15.4522 5.0364 15.0164 4.97508L11.1423 4.43095C10.9773 4.40773 10.8348 4.3077 10.7611 4.16307L9.02908 0.770104C8.83461 0.388875 8.4399 0.151962 8.00001 0.151962C7.56044 0.151962 7.16573 0.388875 6.97126 0.770104L5.23894 4.16338C5.16525 4.30801 5.02236 4.40804 4.85736 4.43126L0.98327 4.97539C0.547867 5.0364 0.192881 5.32565 0.0567178 5.73041C-0.0791252 6.13518 0.0320482 6.5706 0.346986 6.86729L3.15003 9.50832C3.26953 9.62105 3.32432 9.78333 3.29613 9.94189L2.63485 13.6712C2.57622 13.9995 2.66529 14.3187 2.88507 14.5705C3.2266 14.9629 3.82284 15.0824 4.29957 14.8403L7.76421 13.0794C7.90902 13.006 8.09132 13.0066 8.23581 13.0794L11.7008 14.8403C11.8693 14.926 12.049 14.9694 12.2345 14.9694C12.5732 14.9694 12.8942 14.8238 13.1149 14.5705C13.3351 14.3187 13.4238 13.9988 13.3652 13.6712L12.7036 9.94189C12.6754 9.78302 12.7302 9.62105 12.8497 9.50832L15.6527 6.86698Z" fill="#767676"/>
</svg>
