<svg width="49" height="40" viewBox="0 0 49 40" fill="none" xmlns="http://www.w3.org/2000/svg">
<path d="M47.4665 4.65324C46.3981 5.12702 45.289 5.50079 44.1509 5.77138C45.4049 4.57973 46.3478 3.08922 46.8797 1.42555C47.0316 0.950603 46.5157 0.539902 46.0868 0.794201C44.5036 1.73331 42.7981 2.43782 41.0178 2.88839C40.9145 2.91453 40.8079 2.92778 40.701 2.92778C40.3767 2.92778 40.0614 2.80737 39.8135 2.58883C37.9193 0.919416 35.4831 0 32.9538 0C31.8593 0 30.7543 0.170588 29.6693 0.507074C26.3077 1.54971 23.7139 4.32262 22.9001 7.74375C22.5948 9.02697 22.5122 10.3114 22.6543 11.5612C22.6706 11.7048 22.6027 11.805 22.5608 11.8521C22.4873 11.9345 22.3831 11.9817 22.2749 11.9817C22.2628 11.9817 22.2504 11.9811 22.2381 11.98C14.8796 11.2963 8.2441 7.75126 3.55377 1.99793C3.31459 1.70447 2.85593 1.74047 2.6653 2.06746C1.74681 3.6432 1.26142 5.44545 1.26142 7.27936C1.26142 10.0899 2.39059 12.7385 4.35196 14.6694C3.52715 14.4738 2.72884 14.1658 1.98728 13.754C1.62851 13.5546 1.18709 13.8108 1.18205 14.2212C1.1307 18.3964 3.57522 22.1116 7.23721 23.7845C7.16346 23.7863 7.08972 23.7871 7.01585 23.7871C6.43538 23.7871 5.84764 23.7311 5.26916 23.6205C4.86514 23.5434 4.52572 23.9266 4.65117 24.3183C5.83978 28.0292 9.03491 30.7645 12.8585 31.3855C9.68514 33.5157 5.98974 34.6393 2.14356 34.6393L0.944512 34.6386C0.575078 34.6386 0.262623 34.8794 0.168477 35.2373C0.0757372 35.5897 0.246561 35.9615 0.561595 36.1447C4.89562 38.667 9.8392 40 14.86 40C19.2549 40 23.3659 39.1278 27.079 37.4079C30.483 35.8311 33.491 33.5771 36.0195 30.7085C38.3749 28.0363 40.2168 24.9516 41.4938 21.54C42.7111 18.2881 43.3546 14.8182 43.3546 11.5054V11.3476C43.3545 10.8156 43.595 10.3151 44.0148 9.97441C45.6075 8.68123 46.9945 7.15895 48.1371 5.4499C48.4387 4.99864 47.9629 4.43306 47.4665 4.65324Z" fill="white"/>
</svg>
